<?xml version="1.0" encoding="utf-8"?>
<!-- Generator: Adobe Illustrator 16.0.4, SVG Export Plug-In . SVG Version: 6.00 Build 0)  -->
<!DOCTYPE svg PUBLIC "-//W3C//DTD SVG 1.1//EN" "http://www.w3.org/Graphics/SVG/1.1/DTD/svg11.dtd">
<svg version="1.1" id="Ebene_1" xmlns="http://www.w3.org/2000/svg" xmlns:xlink="http://www.w3.org/1999/xlink" x="0px" y="0px"
	 width="297.641px" height="99.21px" viewBox="0 869 297.641 99.21" enable-background="new 0 869 297.641 99.21"
	 xml:space="preserve">
<path d="M174.132,899.789c-0.786-0.508-1.369-0.686-2.054-0.686c-1.218,0-1.875,0.762-1.875,2.41v0.834h4.967v1.928h-4.967v10.85
	h-2.132v-10.85h-3.601v-1.928h3.601v-0.785c0-3.092,1.495-4.385,3.93-4.385c1.167,0,1.952,0.305,2.662,0.734L174.132,899.789z"/>
<path d="M182.272,913.4c2.61,0,4.105-2.205,4.105-4.664s-1.495-4.664-4.105-4.664c-2.609,0-4.105,2.205-4.105,4.664
	S179.662,913.4,182.272,913.4 M182.272,902.144c3.901,0,6.286,3.068,6.286,6.592c0,3.525-2.385,6.592-6.286,6.592
	c-3.902,0-6.287-3.066-6.287-6.592C175.985,905.212,178.369,902.144,182.272,902.144"/>
<path d="M200.062,906.404c-0.178-1.471-0.938-2.33-2.458-2.33c-2.229,0-4.334,2.102-4.334,6.438v4.613h-2.13v-12.777h2.13v2.359
	c0.988-1.547,2.584-2.562,4.714-2.562c2.536,0,4.057,1.521,4.209,4.26H200.062z"/>
<polygon fill="#D57A75" points="66.909,896.572 66.909,897.267 66.909,941.337 70.595,941.337 71.625,941.337 72.504,941.337 
	72.504,896.572 "/>
<g>
	<path fill="#CE5A4E" d="M89.102,945.535c0.384,0,0.89-0.348,0.89-0.729v-52.43c0-0.383-0.506-0.699-0.89-0.699H71.625
		c-0.384,0-0.52,0.158-0.52,0.35v1.049v3.494c0,0.385,0.136,0.703,0.52,0.703h11.884c0.385,0,0.888,0.311,0.888,0.695v41.248
		c0,0.383-0.503,0.725-0.888,0.725H71.625c-0.384,0-0.52,0.131-0.52,0.324v1.047v3.496c0,0.383,0.136,0.73,0.52,0.73h17.478
		L89.102,945.535L89.102,945.535z"/>
</g>
<polygon fill="#8BBD97" points="96.986,896.572 96.986,897.267 96.986,941.337 101.684,941.337 102.582,941.337 102.582,896.572 "/>
<g>
	<path fill="#4EA15A" d="M101.882,945.503v-5.592c7.694,0,13.062-9.566,13.062-21.322c0-11.758-5.368-21.322-13.062-21.322v-5.594
		c10.492,0,18.656,12.074,18.656,26.916C120.538,933.429,112.374,945.503,101.882,945.503"/>
	<path fill="#33A1DF" d="M43.827,928.306v7.713v2.48c0,4.186,2.678,7.035,6.908,7.035h1.189h3.426h4.04
		c0.192,0,0.523-0.348,0.523-0.729v-4.197c0-0.383-0.489-0.672-0.873-0.672h-4.018h-2.05h-1.271c-1.811,0-2.282-0.77-2.282-2.838
		v-1.229v-6.729v-4.104c0-4.219-1.715-5.771-3.803-6.537c2.088-0.762,3.803-2.314,3.803-6.529v-2.914v-7.395v-1.754
		c0-2.033,0.405-2.641,2.282-2.641h1.58h2.004h4.103c0.192,0,0.523-0.316,0.523-0.701v-4.195c0-0.383-0.489-0.697-0.873-0.697h-3.36
		h-3.17h-1.773c-4.23,0-6.908,2.74-6.908,6.834v2.195v9.146c0,0-0.14,2.1-0.24,2.814c-0.266,1.891-2.582,3.51-4.018,3.49h-2.198
		c-0.386,0-0.539,0.301-0.539,0.686v4.195c0,0.383,0.153,0.715,0.539,0.715h2.008c1.832-0.025,4.146,1.518,4.321,3.818
		C43.753,926.24,43.827,928.306,43.827,928.306"/>
	<path fill="#BD3C38" d="M71.625,891.675h-1.981H67.43c-0.385,0-0.521,0.316-0.521,0.699v1.291v2.902v0.703h0.521h4.194h0.88v-0.703
		v-4.193v-0.699H71.625z"/>
	<path fill="#BD3C38" d="M66.909,940.611v1.98v2.213c0,0.385,0.137,0.73,0.521,0.73h1.292h2.902h0.879v-0.73v-4.193v-0.672h-0.879
		H67.43h-0.521V940.611z"/>
	<path fill="#27954E" d="M101.684,891.675h-1.98H97.49c-0.385,0-0.505,0.316-0.505,0.699v1.291v2.902v0.703h0.505h4.193h0.897
		v-0.703v-4.193v-0.699H101.684z"/>
	<path fill="#27954E" d="M96.986,940.611v1.98v2.213c0,0.385,0.12,0.73,0.505,0.73h1.29h2.903h0.897v-0.73v-4.193v-0.672h-0.897
		H97.49h-0.505V940.611z"/>
	<path fill="#7BBBB7" d="M131.959,928.306v7.713v2.48c0,4.186,2.627,7.035,6.858,7.035h1.189h3.426h4.04
		c0.192,0,0.572-0.348,0.572-0.729v-4.197c0-0.383-0.538-0.672-0.922-0.672h-4.019h-2.05h-1.269c-1.811,0-2.232-0.77-2.232-2.838
		v-1.229v-6.729v-4.104c0-1.357-0.398-2.586-0.708-3.287h-9.388c2.579,0.701,3.682,1.623,4.207,3.869
		C131.929,926.74,131.959,928.306,131.959,928.306"/>
	<path fill="#7BBBB7" d="M131.562,912.666c-0.542,1.832-1.751,2.793-3.91,3.492h8.808c0.547-1.398,1.097-2.332,1.097-4.184v-2.914
		v-7.393v-1.756c0-2.033,0.354-2.641,2.232-2.641h1.579h2.003h4.104c0.192,0,0.572-0.316,0.572-0.701v-4.195
		c0-0.383-0.538-0.699-0.922-0.699h-3.359h-3.172h-1.774c-4.231,0-6.858,2.742-6.858,6.836v2.195v9.146
		C131.959,909.853,131.833,911.751,131.562,912.666"/>
	<path fill="#9AC9C6" d="M132.924,919c1.416,0.52,2.97,1.354,3.924,2.752h10.275c0.385,0,0.923-0.332,0.923-0.715v-4.195
		c0-0.385-0.538-0.686-0.923-0.686h-10.664C135.759,917.556,134.096,918.57,132.924,919"/>
	<path fill="#42A5A5" d="M125.453,916.158c-0.386,0-0.489,0.301-0.489,0.686v4.195c0,0.385,0.104,0.717,0.489,0.717h2.007h9.388
		c-0.631-1.4-2.196-2.357-3.313-2.793c1.172-0.43,2.226-1.404,2.926-2.803h-8.809L125.453,916.158L125.453,916.158z"/>
</g>
<rect x="161.604" y="918.5" fill="#CE5A4E" width="101.677" height="30.932"/>
<g>
	<path fill="#FFFFFF" d="M174.559,939.931l-4.985-5.973v5.973h-1.497v-11.91h1.497v4.781l4.56-4.781h1.957l-5.139,5.359l5.513,6.551
		H174.559z"/>
	<path fill="#FFFFFF" d="M185.461,939.931h-1.157l-0.204-1.209c-0.545,0.783-1.752,1.344-3.029,1.344
		c-1.429,0-2.653-0.85-2.653-2.602c0-1.906,1.531-2.809,3.879-2.809h1.735v-0.373c0-1.328-0.936-1.77-1.974-1.77
		c-1.004,0-1.753,0.629-2.024,1.463l-1.26-0.34c0.393-1.498,1.719-2.416,3.284-2.416c2.008,0,3.403,0.936,3.403,3.301V939.931z
		 M181.292,938.773c1.106,0,2.739-0.68,2.739-2.619v-0.271h-1.871c-1.463,0-2.28,0.611-2.28,1.582
		C179.88,938.281,180.442,938.773,181.292,938.773z"/>
	<path fill="#FFFFFF" d="M194.73,934.078c-0.119-0.986-0.63-1.564-1.65-1.564c-1.497,0-2.909,1.412-2.909,4.32v3.098h-1.43v-8.576
		h1.43v1.584c0.664-1.039,1.735-1.719,3.164-1.719c1.701,0,2.723,1.02,2.824,2.857H194.73z"/>
	<path fill="#FFFFFF" d="M197.823,929.314v-1.293h3.795v8.678c0,1.412,0.629,2.074,1.803,2.074c1.021,0,1.77-0.629,1.991-2.074
		l1.293,0.254c-0.306,2.076-1.531,3.113-3.284,3.113c-1.973,0-3.232-1.207-3.232-3.367v-7.385H197.823z"/>
	<path fill="#FFFFFF" d="M215.258,933.074l-1.123,0.801c-0.527-0.953-1.139-1.361-2.059-1.361c-0.73,0-1.479,0.307-1.479,1.139
		c0,0.732,0.714,1.072,1.991,1.328c1.599,0.322,3.078,0.783,3.078,2.33c0,1.77-1.531,2.756-3.3,2.756
		c-1.719,0-3.198-0.85-3.726-2.482l1.36-0.512c0.374,1.055,1.19,1.701,2.365,1.701c0.97,0,1.82-0.424,1.82-1.326
		c0-0.732-0.851-0.971-2.212-1.26c-1.445-0.305-2.773-0.799-2.773-2.482c0-1.531,1.344-2.484,2.927-2.484
		C213.676,931.22,214.612,931.9,215.258,933.074z"/>
	<path fill="#FFFFFF" d="M225.089,934.078c-0.119-0.986-0.63-1.564-1.65-1.564c-1.497,0-2.909,1.412-2.909,4.32v3.098h-1.43v-8.576
		h1.43v1.584c0.664-1.039,1.735-1.719,3.164-1.719c1.701,0,2.723,1.02,2.824,2.857H225.089z"/>
	<path fill="#FFFFFF" d="M228.879,931.355h1.43v5.666c0,1.191,0.562,1.752,1.582,1.752c1.344,0,2.518-1.463,2.518-3.963v-3.455h1.43
		v8.576h-1.43v-1.582c-0.611,0.986-1.684,1.717-2.908,1.717c-1.787,0-2.621-1.088-2.621-2.738V931.355z"/>
	<path fill="#FFFFFF" d="M246.246,939.931h-1.429v-5.615c0-1.242-0.544-1.803-1.582-1.803c-1.345,0-2.722,1.377-2.722,3.828v3.59
		h-1.43v-12.047h1.43v5.055c0.629-0.92,1.77-1.719,3.113-1.719c1.838,0,2.619,1.088,2.619,2.789V939.931z"/>
	<path fill="#FFFFFF" d="M256.826,935.949h-6.703c0.085,1.701,1.123,2.824,2.637,2.824c1.293,0,2.178-0.629,2.756-1.701l1.141,0.596
		c-0.936,1.805-2.297,2.398-3.896,2.398c-2.501,0-4.1-1.922-4.1-4.422c0-2.416,1.531-4.424,4.1-4.424
		c2.654,0,4.066,1.889,4.066,4.135V935.949z M250.225,934.656h5.088c-0.256-1.361-1.157-2.143-2.553-2.143
		C251.382,932.513,250.514,933.363,250.225,934.656z"/>
</g>
</svg>
